<?xml version="1.0" encoding="UTF-8"?>
<svg width="646px" height="159px" viewBox="0 0 646 159" version="1.1" xmlns="http://www.w3.org/2000/svg" xmlns:xlink="http://www.w3.org/1999/xlink">
    <!-- Generator: Sketch 49.1 (51147) - http://www.bohemiancoding.com/sketch -->
    <title>logo</title>
    <desc>Created with Sketch.</desc>
    <defs></defs>
    <g id="logo" stroke="none" stroke-width="1" fill="none" fill-rule="evenodd">
        <g id="zimbra-logo" fill="#0088C1">
            <path d="M86.5007548,138.542729 L30.7764248,138.542729 L90.8828285,58.0707146 C94.147194,53.7243878 95.3799604,50.9177911 95.3799604,47.7311344 C95.3799604,45.9185407 94.5646909,40 84.1239811,40 L13.859582,40 C6.55503002,40 2.38334843,43.3750625 2.38334843,49.2448776 C2.38334843,55.1146927 6.55503002,58.4767616 13.859582,58.4767616 L63.5778739,58.4767616 L4.47412029,138.948776 C1.21961692,143.295102 0,146.091954 0,149.278611 C0,151.094453 0.808694777,157 11.2428298,157 L86.5007548,157 C93.8020194,157 98,153.637931 98,147.774613 C98,141.891804 93.8020194,138.542729 86.5007548,138.542729" id="Fill-4"></path>
            <path d="M121.501647,38 C114.515681,38 110,42.4466687 110,49.3089334 L110,147.694353 C110,154.559904 114.515681,159 121.501647,159 C128.500788,159 133,154.559904 133,147.694353 L133,49.3089334 C133,42.4466687 128.500788,38 121.501647,38" id="Fill-5"></path>
            <path d="M281.917429,38 C265.513279,38 253.53235,43.8500149 243.189529,56.9303854 C234.675983,44.3725725 222.975213,38 208.360787,38 C189.995523,38 181.65996,45.7331939 177.042276,50.9850612 L177.042276,49.3089334 C177.042276,42.4466687 172.51688,38 165.529378,38 C158.558356,38 154,42.4466687 154,49.3089334 L154,147.694353 C154,154.559904 158.558356,159 165.529378,159 C172.51688,159 177.042276,154.559904 177.042276,147.694353 L177.042276,82.5389901 C177.042276,66.3594264 186.706123,56.683896 202.922401,56.683896 C219.254039,56.683896 229.006878,66.3594264 229.006878,82.5389901 L229.006878,147.694353 C229.006878,154.559904 233.509202,159 240.506592,159 C247.507278,159 252.009602,154.559904 252.009602,147.694353 L252.009602,82.5389901 C252.009602,66.3594264 261.689929,56.683896 277.879839,56.683896 C294.218069,56.683896 303.967612,66.3594264 303.967612,82.5389901 L303.967612,147.694353 C303.967612,154.559904 308.486416,159 315.48051,159 C322.484492,159 327,154.559904 327,147.694353 L327,83.2028682 C327,51.9808784 304.349947,38 281.917429,38" id="Fill-6"></path>
            <path d="M402.943153,57.5367114 C427.519319,57.5367114 436.244412,79.8813184 436.244412,99.0026442 C436.244412,118.133747 427.519319,140.478354 402.943153,140.478354 C378.357217,140.478354 369.645152,118.133747 369.645152,99.0026442 C369.645152,79.8813184 378.357217,57.5367114 402.943153,57.5367114 M404.613916,39.0118067 C389.495633,39.0118067 378.018505,46.1167138 371.752332,53.3389497 L371.752332,11.2016357 C371.752332,4.39330956 367.280681,0 360.369652,0 C353.474907,0 349,4.39330956 349,11.2016357 L349,147.788587 C349,154.596913 353.474907,159 360.369652,159 C367.280681,159 371.752332,154.596913 371.752332,147.788587 L371.752332,144.972697 C378.148779,154.280777 389.202517,159 404.613916,159 C440.312213,159 459,128.810663 459,99.0026442 C459,69.1913664 440.312213,39.0118067 404.613916,39.0118067" id="Fill-7"></path>
            <path d="M590.580268,140.318883 C565.761881,140.318883 556.964159,117.789141 556.964159,98.4967134 C556.964159,79.2108594 565.761881,56.6811169 590.580268,56.6811169 C615.408519,56.6811169 624.212816,79.2108594 624.212816,98.4967134 C624.212816,117.789141 615.408519,140.318883 590.580268,140.318883 M635.216544,38 C630.031937,38 624.459389,41.2668948 624.459389,48.4317145 L624.459389,52.5432692 C613.948807,42.3679107 603.720962,38 590.580268,38 C553.446385,38 534,68.4340504 534,98.4967134 C534,128.55609 553.446385,159 590.580268,159 C603.977397,159 615.651804,153.412755 624.459389,142.829857 L624.459389,148.558426 C624.459389,155.726532 630.031937,159 635.216544,159 C639.569378,159 646,156.222811 646,148.558426 L646,48.4317145 C646,40.7804759 639.569378,38 635.216544,38" id="Fill-9"></path>
            <path d="M133,13.0032737 C133,20.1727525 127.176759,26 120.001637,26 C112.816694,26 107,20.1727525 107,13.0032737 C107,5.83052128 112.816694,0 120.001637,0 C127.176759,0 133,5.83052128 133,13.0032737" id="Fill-11"></path>
            <path d="M538,48.8754074 C538,42.4697957 532.842315,38 525.456041,38 C514.557458,38 503.583937,46.9363049 497.777875,56.1421121 L497.777875,49.3092405 C497.777875,42.4435028 493.291374,38 486.4036,38 C479.486502,38 475,42.4435028 475,49.3092405 L475,147.697333 C475,154.56307 479.486502,159 486.4036,159 C493.291374,159 497.777875,154.56307 497.777875,147.697333 L497.777875,92.3803238 C497.777875,66.6461321 517.988312,61.3875489 524.224452,60.3949913 C533.35059,58.7845502 538,54.9129183 538,48.8754074" id="Combined-Shape"></path>
        </g>
    </g>
</svg>